<svg xmlns="http://www.w3.org/2000/svg" width="228.798" height="38.466" viewBox="0 0 228.798 38.466"><defs><style>.a{fill:#fff;}</style></defs><g transform="translate(-827 -375)"><path class="a" d="M312.46,26.18V13.94h-1.116a2.623,2.623,0,0,0-2.854,2.9V30.389c0,1.689.884,3.385,2.854,3.385h.97a7.128,7.128,0,0,1-2.824,2.4v.775c3.4-.079,6.8-.6,9.813-3.177h14.4c1.97,0,3.885-1.7,3.885-3.385v-.579H315.8A3.316,3.316,0,0,1,312.46,26.18Z" transform="translate(706.653 369.562)"/><path class="a" d="M353.159,19.223V3.885C353.159,1.976,350.6,0,348.372,0h-25.31a4.368,4.368,0,0,0-4.281,3.885V19.223c0,1.9,2.055,3.257,4.281,3.257h18.516l.982-.006c3.013,2.586,6.416,3.1,9.819,3.184v-.775a6.978,6.978,0,0,1-2.909-2.525C351.36,22,353.159,20.821,353.159,19.223ZM343.072,7.251l-2.159,6.459c-.061.159-.067.177-.366.177H331.9l.256,1.36.39.018a1.178,1.178,0,0,1,1.043.579l.146.226h5.824l.146-.213a1.481,1.481,0,0,1,1.11-.531,1.448,1.448,0,0,1,1.513,1.592,1.569,1.569,0,0,1-1.525,1.58,1.622,1.622,0,0,1-1.519-1.232l-.085-.39h-5.1l-.085.39a1.772,1.772,0,0,1-1.519,1.208,1.645,1.645,0,0,1-1.116-2.726l.183-.2L329.2,5.526h-3.348v-.8h3.476c.091,0,.311,0,.39.335l.4,1.921H342.7a.482.482,0,0,1,.366.11C343.1,7.105,343.114,7.13,343.072,7.251Z" transform="translate(702.639 375)"/><path class="a" d="M181.908,29.5a7.038,7.038,0,0,1-.573,3.69c-1.1,1.83-3,2.354-5.446,1.915-1.683-.3-2.726-1.573-2.927-3.751l-.128-17.619h-9.789c.043,5.983-.268,15.027.543,20.992.823,6.062,4.019,8.471,8.978,9.026a10.347,10.347,0,0,0,2.129.024,133.75,133.75,0,0,1,14.582-.659c1.775.024,2.007.024,2.007.024l.006-29.408h-9.441C181.8,18.1,181.908,25.123,181.908,29.5Z" transform="translate(763.403 369.644)"/><path class="a" d="M240.206,27.589a25.447,25.447,0,0,0-.726-6.324c-.714-3.068-2.269-5.69-5.276-7.056a19.675,19.675,0,0,0-14.326-.213l2.44,6.148a14.331,14.331,0,0,1,2.36-.5,11.956,11.956,0,0,1,2.427.043,4.858,4.858,0,0,1,4.336,3.983c-1.238.061-2.22.073-3.2.183-3.915.427-7.892.531-11.5,2.464a8.992,8.992,0,0,0-3.543,12.533c1.97,3.342,5.166,4.519,8.74,4.586,5.465.1,10.9-.927,16.388-.6a7.421,7.421,0,0,0,1.878-.012C240.188,38.445,240.121,31.95,240.206,27.589Zm-8.788,4.4c-.274,2.744-2.781,4.641-6.172,4.653-2.641.012-3.763-.653-3.952-2.354-.2-1.775.976-3.1,3.385-3.568a23.572,23.572,0,0,1,5.123-.653C231.2,30.114,231.54,30.773,231.418,31.992Z" transform="translate(744.315 370.025)"/><path class="a" d="M38,31.444l20.992-.317a20.07,20.07,0,0,0-2.568-12.179A11.433,11.433,0,0,0,50.2,13.819a15.926,15.926,0,0,0-16.211,3.2c-4.641,4.086-5.928,9.5-4.33,15.521,1.574,5.946,7.813,10.856,13.905,10.929l1.58.018-.152-7C42.219,36.342,38.718,34.707,38,31.444Zm6.556-11.71c2.6.1,4.385,1.946,4.94,4.855H38.474C39.347,21.278,41.658,19.619,44.555,19.735Z" transform="translate(815.684 369.976)"/><path class="a" d="M108.219,18.114,102.6,12.07l-9.935,9.9-9.508-9.417s-4.422,3.94-5.843,5.263l9.618,9.8s-.848.939-1.2,1.293c-2.44,2.446-5.94,5.9-8.423,8.3l5.611,5.959C85.367,40.747,90.1,36,92.74,33.324l10.533,9.85,5.251-5.574L98.369,27.866Z" transform="translate(796.84 370.291)"/><path class="a" d="M9.319,8.5c.012-1.622-.1-6.873-.061-8.5H0L.043,30.884a6.325,6.325,0,0,0,3.1,5.587c4,2.519,9.539,2.305,13.893,1.232V30.214c-1.525.073-3.129.287-4.519.226-2.055-.091-3.123-.976-3.208-2.927-.146-3.342-.055-8.105-.061-11.447l7.794-.152c.049-2.214.037-5.4.006-7.4Z" transform="translate(827 375)"/><path class="a" d="M261.02.85V38.791h9.374V.88Z" transform="translate(725.172 374.668)"/><path class="a" d="M140.643,8.5c.012-1.622-.1-6.873-.061-8.5H131.33l.043,30.884a6.325,6.325,0,0,0,3.1,5.587c4,2.519,9.539,2.305,13.893,1.232V30.214c-1.525.073-3.129.287-4.519.226-2.055-.091-3.123-.976-3.208-2.927-.146-3.342-.055-8.105-.061-11.447l7.788-.152c.049-2.214.037-5.4.006-7.4Z" transform="translate(775.766 375)"/></g></svg>