<?xml version="1.0" encoding="utf-8"?>
<!-- Generator: Adobe Illustrator 23.0.2, SVG Export Plug-In . SVG Version: 6.00 Build 0)  -->
<svg version="1.1" id="Layer_1" xmlns="http://www.w3.org/2000/svg" xmlns:xlink="http://www.w3.org/1999/xlink" x="0px" y="0px"
	 viewBox="0 0 220 94" style="enable-background:new 0 0 220 94;" xml:space="preserve">
<style type="text/css">
	.st0{fill:#FFFFFF;}
</style>
<g>
	<g>
		<path class="st0" d="M178.78,5.05c1.68,0.23,3.38,0.38,5.05,0.7c9.07,1.71,16.59,5.91,21.69,13.83c2.96,4.6,4.52,9.69,4.61,15.13
			c0.14,7.93,0.06,15.86,0.07,23.79c0.01,4.66,0,9.32,0,13.98c0,0.33,0,0.67,0,1.06c-5.55,0-11.02,0-16.61,0c0-0.34,0-0.67,0-1
			c0-10.94,0.04-21.88-0.03-32.82c-0.02-2.37-0.25-4.78-0.77-7.09c-1.46-6.39-5.68-9.96-12.06-11.01c-1.59-0.26-3.22-0.37-4.83-0.37
			c-17.02-0.03-34.05-0.02-51.07-0.02c-0.3,0-0.61,0-0.99,0c0,17.48,0,34.86,0,52.3c-5.52,0-10.96,0-16.5,0
			c-0.02-0.28-0.05-0.57-0.05-0.87c0-22.28,0-44.56,0-66.84c0-0.25,0.03-0.51,0.05-0.76C131.14,5.05,154.96,5.05,178.78,5.05z"/>
		<path class="st0" d="M96.58,5.05c-8.11,9.06-16.22,18.12-24.42,27.28c0.55,0.13,1.01,0.24,1.46,0.35
			c7.47,1.78,13.78,5.37,18.24,11.79c3.05,4.39,4.84,9.31,5.31,14.57c0.43,4.71,0.33,9.47,0.46,14.21c0,0.08-0.04,0.16-0.08,0.28
			c-5.5,0-11,0-16.61,0c-0.01-0.29-0.04-0.59-0.04-0.89c0-2.67,0.01-5.34-0.01-8.01c-0.01-2.8-0.39-5.55-1.41-8.18
			c-1.98-5.15-5.9-7.92-11.18-8.9c-1.67-0.31-3.38-0.48-5.08-0.49c-11.99-0.04-23.99-0.02-35.98-0.02c-0.22,0-0.45,0-0.79,0
			c0,8.85,0,17.63,0,26.57c-5.64,0-11.17,0-16.7,0c0-22.85,0-45.7,0-68.55c5.58,0,11.15,0,16.71,0c-0.02,0.2-0.06,0.39-0.06,0.59
			c0,8.44,0,16.87,0,25.31c0,0.22,0.04,0.43,0.07,0.66c0.16,0.02,0.27,0.05,0.38,0.05c8.35,0,16.7,0.01,25.05-0.02
			c0.33,0,0.74-0.26,0.97-0.52c7.42-8.45,14.82-16.92,22.23-25.39c0.18-0.21,0.32-0.45,0.47-0.68C82.6,5.05,89.59,5.05,96.58,5.05z"
			/>
		<path class="st0" d="M68.79,88.95c-0.02-0.02-0.04-0.05-0.06-0.05c-3.63-1.1-4.82-2.72-4.82-6.58c0-1.81,0-3.62,0-5.48
			c5.18,0,10.25,0,15.39,0c0,0.91,0,1.81,0,2.81c-4.1,0-8.2,0-12.35,0c0,0.66,0,1.21,0,1.86c4.03,0,8.02,0,12.04,0
			c0,0.94,0,1.78,0,2.7c-3.96,0-7.86,0-11.84,0c0.07,0.81,0.52,1.29,1.14,1.5c0.6,0.21,1.27,0.33,1.91,0.33
			c3.01,0.03,6.02,0.01,9.19,0.01c0,0.99,0,1.94,0,2.89C75.83,88.95,72.31,88.95,68.79,88.95z"/>
		<path class="st0" d="M199.07,88.95c-0.04-0.04-0.08-0.09-0.12-0.11c-3.34-0.96-4.65-2.7-4.66-6.17c0-1.92,0-3.85,0-5.83
			c5.15,0,10.22,0,15.41,0c0,0.46,0,0.91,0,1.35c0,0.45,0,0.9,0,1.47c-4.18,0-8.28,0-12.42,0c0,0.64,0,1.17,0,1.8
			c4.01,0,7.99,0,12.05,0c0,0.96,0,1.82,0,2.77c-3.94,0-7.84,0-11.84,0c0.16,0.89,0.67,1.36,1.36,1.57
			c0.56,0.17,1.17,0.24,1.76,0.24c2.98,0.02,5.96,0.01,9.04,0.01c0,1,0,1.94,0,2.89C206.12,88.95,202.59,88.95,199.07,88.95z"/>
		<path class="st0" d="M143.82,88.95c0-0.93,0-1.86,0-2.89c0.44,0,0.74,0,1.04,0c2.98,0,5.97,0.01,8.95,0
			c1.25-0.01,1.82-0.5,2.05-1.8c-3.98,0-7.94,0-12.14,0c0.16-1.58,0.15-3.07,0.5-4.47c0.46-1.84,1.96-2.79,3.74-2.86
			c3.54-0.14,7.09-0.04,10.69-0.04c0,0.89,0,1.78,0,2.79c-0.33,0-0.63,0-0.94,0c-2.96,0-5.91-0.01-8.87,0.01
			c-1.36,0.01-1.9,0.49-2.09,1.82c3.98,0,7.94,0,12,0c0.03,1.64,0.19,3.2-0.38,4.7c-0.55,1.43-1.66,2.18-3.09,2.55
			c-0.24,0.06-0.48,0.14-0.73,0.21C150.98,88.95,147.4,88.95,143.82,88.95z"/>
		<path class="st0" d="M45.94,88.95c0-2.24-0.06-4.49,0.01-6.73c0.1-3.17,2.18-5.3,5.34-5.38c3.46-0.09,6.92-0.02,10.45-0.02
			c0,0.92,0,1.81,0,2.8c-0.28,0.01-0.58,0.04-0.89,0.04c-2.81,0-5.62,0-8.43,0c-0.48,0-0.97,0.01-1.45,0.07
			c-1.21,0.13-1.87,0.64-1.98,1.84c-0.12,1.43-0.03,2.88-0.03,4.4c3.22,0,6.52,0,9.88,0c0-0.54,0-1.09,0-1.73c-0.69,0-1.36,0-2.09,0
			c0-0.93,0-1.77,0-2.68c1.65,0,3.31,0,5.04,0c0,2.47,0,4.92,0,7.38C56.51,88.95,51.22,88.95,45.94,88.95z"/>
		<path class="st0" d="M27.86,88.95c0-2.13-0.03-4.26,0-6.38c0.05-3.48,2.15-5.66,5.61-5.74c3.23-0.07,6.47-0.02,9.71-0.02
			c0.14,0,0.27,0.04,0.54,0.08c0,4.03,0,8.05,0,12.07c-1.02,0-2.05,0-3.07,0c0-1.54,0-3.09,0-4.64c-3.33,0-6.57,0-9.89,0
			c0,1.59,0,3.12,0,4.64C29.79,88.95,28.83,88.95,27.86,88.95z M40.64,79.76c-2.47,0-4.86-0.03-7.24,0.02
			c-0.51,0.01-1.08,0.2-1.52,0.48c-0.38,0.25-0.61,0.73-1.02,1.25c3.46,0,6.6,0,9.77,0C40.64,80.91,40.64,80.35,40.64,79.76z"/>
		<path class="st0" d="M81.23,88.95c0-2.44,0-4.87,0-7.38c0.93,0,1.85,0,2.87,0c0,1.46,0,2.92,0,4.41c2.47,0,4.85,0.09,7.21-0.04
			c1.24-0.06,2.03-0.95,2.14-2.19c0.11-1.32,0.03-2.65,0.03-4.07c-4.08,0-8.12,0-12.23,0c0-0.98,0-1.87,0-2.82
			c5.05,0,10.08,0,15.14,0c0.04,0.07,0.11,0.14,0.1,0.21c-0.01,2.21,0.08,4.43-0.05,6.64c-0.17,2.86-1.67,4.47-4.49,5.11
			c-0.11,0.02-0.21,0.09-0.31,0.13C88.17,88.95,84.7,88.95,81.23,88.95z"/>
		<path class="st0" d="M105.79,88.95c0.01-3.67,0.03-7.33,0.04-11c0-0.34,0-0.67,0-1.09c0.33-0.02,0.6-0.06,0.87-0.06
			c3.72,0,7.45-0.04,11.17,0.02c1.03,0.02,2.12,0.19,3.06,0.58c1.92,0.78,3.05,2.31,3.13,4.4c0.09,2.38,0,4.77-0.02,7.15
			c-0.97,0-1.93,0-2.9,0c0-2.07,0.03-4.14,0.01-6.21c-0.02-2.05-0.98-3.04-3.03-3.06c-2.92-0.04-5.84-0.01-8.76-0.01
			c-0.16,0-0.32,0.04-0.49,0.07c0,3.1,0,6.16,0,9.21C107.84,88.95,106.81,88.95,105.79,88.95z"/>
		<path class="st0" d="M165.65,88.95c-0.07-0.04-0.13-0.11-0.21-0.13c-3.05-0.76-4.52-2.58-4.56-5.7c-0.03-2.07-0.01-4.14-0.01-6.26
			c5.07,0,10.06,0,15.11,0c0,0.89,0,1.78,0,2.79c-4.01,0-8.03,0-12.25,0c0.1,1.6,0.08,3.11,0.32,4.57c0.2,1.21,1.26,1.82,2.73,1.84
			c2.73,0.02,5.46,0.01,8.18,0.01c0.31,0,0.62,0,1.08,0c0,0.99,0,1.94,0,2.89C172.58,88.95,169.11,88.95,165.65,88.95z"/>
		<path class="st0" d="M10.12,88.95c0-4,0-8,0-12.08c1,0,1.94,0,2.97,0c0,1.52,0,3.02,0,4.62c1.52,0,2.96,0.02,4.4-0.02
			c0.23-0.01,0.48-0.27,0.66-0.47c1.1-1.23,2.15-2.49,3.27-3.7c0.25-0.27,0.7-0.46,1.07-0.49c0.93-0.07,1.87-0.02,3.04-0.02
			c-1.48,1.67-2.84,3.2-4.18,4.71c0.07,0.08,0.08,0.11,0.1,0.12c3.38,1.4,4.3,2.78,4.31,6.47c0,0.28,0.03,0.56,0.05,0.85
			c-1.02,0-2.05,0-3.07,0c0.01-0.45,0.02-0.91,0.02-1.36c-0.02-2.35-0.97-3.32-3.31-3.34c-1.88-0.02-3.75-0.01-5.63,0
			c-0.22,0-0.43,0.05-0.8,0.09c0,1.57,0,3.09,0,4.62C12.06,88.95,11.09,88.95,10.12,88.95z"/>
		<path class="st0" d="M131.88,88.95c-0.16-0.05-0.31-0.13-0.47-0.16c-2.86-0.57-4.57-2.24-4.84-5.16c-0.2-2.22-0.04-4.47-0.04-6.77
			c0.91,0,1.83,0,2.89,0c0,0.81,0,1.63,0,2.44c0,1.11-0.01,2.22,0,3.32c0.03,1.87,0.86,3.06,2.71,3.22c2.19,0.19,4.4,0.04,6.7,0.04
			c0-2.93,0-5.96,0-9.03c1.01,0,1.93,0,2.94,0c0,4.05,0,8.07,0,12.1C138.48,88.95,135.18,88.95,131.88,88.95z"/>
		<path class="st0" d="M178.09,88.95c0-4,0-8.01,0-12.08c0.99,0,1.91,0,2.93,0c0,3.01,0,6.04,0,9.19c0.83,0,1.55,0,2.28,0
			c1.36,0,2.73,0,4.09,0c1.21,0,2.24-0.33,2.85-1.49c0.08-0.16,0.34-0.31,0.52-0.32c0.85-0.03,1.7-0.01,2.54-0.01
			c-0.04,2.12-1.66,3.96-3.92,4.52c-0.25,0.06-0.49,0.14-0.73,0.2C185.14,88.95,181.62,88.95,178.09,88.95z"/>
		<path class="st0" d="M113.29,88.95c0-2.57,0-5.15,0-7.76c1.02,0,1.94,0,2.9,0c0,2.62,0,5.19,0,7.76
			C115.23,88.95,114.26,88.95,113.29,88.95z"/>
		<path class="st0" d="M165.95,29.67c0,14.65,0,29.22,0,43.86c-5.55,0-11.07,0-16.65,0c0-14.61,0-29.2,0-43.86
			C154.84,29.67,160.36,29.67,165.95,29.67z"/>
	</g>
</g>
<g>
	<path class="st0" d="M216,79.37c0,1.43-1.12,2.55-2.58,2.55c-1.44,0-2.59-1.12-2.59-2.55c0-1.4,1.15-2.52,2.59-2.52
		C214.88,76.85,216,77.97,216,79.37z M211.47,79.37c0,1.12,0.83,2.01,1.96,2.01c1.1,0,1.92-0.89,1.92-2c0-1.12-0.81-2.03-1.93-2.03
		C212.3,77.35,211.47,78.26,211.47,79.37z M213.02,80.69h-0.58v-2.52c0.23-0.05,0.55-0.08,0.97-0.08c0.48,0,0.69,0.08,0.87,0.18
		c0.14,0.11,0.25,0.31,0.25,0.55c0,0.28-0.21,0.49-0.52,0.58v0.03c0.25,0.09,0.38,0.28,0.46,0.61c0.08,0.38,0.12,0.54,0.18,0.63
		h-0.63c-0.08-0.09-0.12-0.32-0.2-0.61c-0.05-0.28-0.2-0.4-0.52-0.4h-0.28V80.69z M213.04,79.26h0.28c0.32,0,0.58-0.11,0.58-0.37
		c0-0.23-0.17-0.38-0.54-0.38c-0.15,0-0.26,0.02-0.32,0.03V79.26z"/>
</g>
</svg>
