<?xml version="1.0" encoding="utf-8"?>
<!-- Generator: Adobe Illustrator 23.0.2, SVG Export Plug-In . SVG Version: 6.00 Build 0)  -->
<svg version="1.1" id="Layer_1" xmlns="http://www.w3.org/2000/svg" xmlns:xlink="http://www.w3.org/1999/xlink" x="0px" y="0px"
	 viewBox="0 0 227.3 178.73" style="enable-background:new 0 0 227.3 178.73;" xml:space="preserve">
<style type="text/css">
	.st0{fill:#FFFFFF;}
</style>
<g>
	<path class="st0" d="M72.09,173.41l36.12-56.35c1.47-2.28,3.4-3.54,5.44-3.54c2.03,0,3.97,1.26,5.44,3.54l36.35,56.35h14.2
		l-49.3-76.44c-1.76-2.72-4.13-4.22-6.69-4.22c-2.56,0-4.94,1.5-6.69,4.22l-49.3,76.44H72.09z"/>
	<path class="st0" d="M44.8,173.41l66.01-102.21c0.78-1.21,1.79-1.87,2.84-1.87c1.05,0,2.06,0.67,2.84,1.88l66.01,102.21h14.12
		L117.74,51.12c-1.06-1.65-2.52-2.56-4.09-2.56c-1.58,0-3.03,0.91-4.09,2.56L30.69,173.41H44.8z"/>
	<path class="st0" d="M99.71,173.41l6.77-11.07c1.93-3,4.48-4.65,7.17-4.65c2.69,0,5.24,1.65,7.17,4.64l7.06,11.07h14.28
		l-20.09-31.15c-2.22-3.44-5.21-5.33-8.43-5.33c-3.22,0-6.21,1.89-8.43,5.33l-20.09,31.15H99.71z"/>
	<path class="st0" d="M17.77,174.01l95.64-148.3c0.11-0.17,0.2-0.21,0.24-0.21c0.04,0,0.13,0.04,0.24,0.21l95.64,148.3h14.21
		L115.14,5.62c-0.37-0.57-0.91-0.9-1.49-0.9c-0.58,0-1.13,0.33-1.5,0.9L3.56,174.01H17.77z"/>
</g>
<g>
	<path class="st0" d="M-71.51,256.87c0-8.71-4.58-16.47-12-20.39c1.45-2.19,2.19-4.48,2.19-6.81c0-9.28-8.69-16.77-20.67-16.77
		c-11,0-19.95,7.93-19.95,16.77c0,0.27-0.06,63.15-0.06,63.15h11.48v-38.85v-21.01c0-7.76,5.64-9.58,9.45-9.67
		c6.01-0.14,8.42,3.57,8.49,5.47c0.09,2.34-1.1,4.19-3.24,5.13c-2.47,1.08-5.21,1.07-7.02,1.36v9.65
		c13.62-2.61,19.84,3.76,19.86,11.97c0.02,6.44-3.96,12.82-11.51,12.96c-5.13,0.09-10.42-3.57-10.42-3.57v10.28v0.26l0.21,0.14
		c3.15,2.07,6.58,2.92,11.84,2.92c5.89,0,11.32-2.38,15.28-6.71C-73.67,268.87-71.51,263.09-71.51,256.87z"/>
	<path class="st0" d="M160.07,262.8h-9.51c-7.71,15.48-20.34,24.62-37.2,24.62c-14.07,0-26.42-7.53-33.22-18.77
		c-1.73-2.85-9.26-17.83-10.39-20c-6-12.28-12.91-28.68-12.91-28.68h-8.89l-25.88,58.77h12.49l2.13-5.09h22.62L54.1,262.8H41.26
		l11.11-26.46c0,0,15.14,33.53,21.66,41.8c9.25,11.74,23.28,19.68,39.34,19.68c21.46,0,40.29-13.74,46.86-34.2l0.13-0.41
		L160.07,262.8z"/>
	<polygon class="st0" points="-63.69,219.61 -63.69,224.95 -63.69,230.29 -63.69,243.07 -63.69,253.74 -63.69,267.89 -63.69,278.57 
		-63.69,278.74 -21.28,278.74 -21.28,267.89 -53.02,267.89 -53.02,254.51 -31.84,254.51 -31.84,243.83 -53.02,243.83 -53.02,230.29 
		-1.84,230.29 -1.84,278.74 8.84,278.74 8.84,230.29 32.31,230.29 37.09,219.61 	"/>
	<path class="st0" d="M338.15,219.41v38.49l-24.87-38.49h-0.08h-11.15v58.91h11.15v-39.07c10.92,17.1,24.94,39.07,24.94,39.07h11.15
		v-58.91H338.15z"/>
	<path class="st0" d="M265.98,218.86c-16.57,0-30,13.43-30,30.01s13.43,30.01,30,30.01c16.57,0,30-13.43,30-30.01
		S282.55,218.86,265.98,218.86z M265.98,268.17c-10.66,0-19.3-8.64-19.3-19.3c0-10.66,8.64-19.3,19.3-19.3
		c10.66,0,19.3,8.64,19.3,19.3C285.28,259.53,276.64,268.17,265.98,268.17z"/>
	<path class="st0" d="M218.84,219.97v38.35l-24.9-38.35h-12.78v35.98l-21.61-35.98h-8.89c0,0-14.65,29.41-20.67,38.96
		c-1.4,2.22-4.73,5.49-7,6.83c-2.75,1.61-5.9,2.42-9.47,2.42c-2.7,0-5.25-0.52-7.63-1.56c-2.39-1.04-4.47-2.43-6.25-4.19
		c-1.79-1.76-3.2-3.81-4.23-6.15c-1.04-2.34-1.56-4.81-1.56-7.41c0-2.65,0.52-5.14,1.56-7.48c1.04-2.34,2.45-4.39,4.23-6.15
		c1.78-1.76,3.86-3.16,6.25-4.19c2.39-1.04,4.93-1.56,7.63-1.56c3.37,0,6.47,0.78,9.29,2.35c2.22,1.24,5.09,2.98,7.08,5.01
		l4.96-9.51c-2.23-2.1-4.78-3.9-7.7-5.37c-4.12-2.07-8.66-3.11-13.62-3.11c-4.29,0-8.32,0.77-12.08,2.32
		c-3.76,1.54-7.03,3.67-9.81,6.4c-2.78,2.72-4.98,5.9-6.58,9.54c-1.61,3.64-2.4,7.56-2.4,11.75c0,4.2,0.8,8.11,2.4,11.75
		c1.6,3.64,3.8,6.81,6.58,9.51c2.78,2.7,6.05,4.83,9.81,6.4c3.76,1.57,7.78,2.35,12.08,2.35c4.96,0,9.5-1.04,13.62-3.11
		c4.12-2.07,8.82-6.4,11.25-10.26c4.3-6.83,16.75-29.16,16.75-29.16l24.99,42.39h1.03h11.16h0.3l-0.3-0.49v-40.72l26.52,41.21h11.17
		v-58.77H218.84z"/>
</g>
</svg>
